<mxfile host="app.diagrams.net" modified="2022-10-30T07:08:04.031Z" agent="5.0 (Macintosh; Intel Mac OS X 10_15_7) AppleWebKit/537.36 (KHTML, like Gecko) Chrome/105.0.0.0 Safari/537.36" etag="Yd03D5LXmJBxNpTLHZ5c" version="20.3.7" type="github">
  <diagram id="bsSntz3MaLpm9zyaFs3J" name="第 1 页">
    <mxGraphModel dx="1986" dy="1160" grid="1" gridSize="10" guides="1" tooltips="1" connect="1" arrows="1" fold="1" page="1" pageScale="1" pageWidth="2800" pageHeight="2000" math="0" shadow="0">
      <root>
        <mxCell id="0" />
        <mxCell id="1" parent="0" />
        <mxCell id="RP6e3F4T2VRB4Au0Qs6i-22" value="" style="rounded=0;whiteSpace=wrap;html=1;fontFamily=Menlo;fontSize=16;dashed=1;" vertex="1" parent="1">
          <mxGeometry x="150" y="30" width="1730" height="880" as="geometry" />
        </mxCell>
        <mxCell id="RP6e3F4T2VRB4Au0Qs6i-24" value="" style="rounded=0;whiteSpace=wrap;html=1;fontFamily=Menlo;fontSize=16;dashed=1;dashPattern=1 1;" vertex="1" parent="1">
          <mxGeometry x="1080" y="190" width="200" height="690" as="geometry" />
        </mxCell>
        <mxCell id="RP6e3F4T2VRB4Au0Qs6i-23" value="" style="rounded=0;whiteSpace=wrap;html=1;fontFamily=Menlo;fontSize=16;dashed=1;dashPattern=1 1;" vertex="1" parent="1">
          <mxGeometry x="240" y="190" width="780" height="590" as="geometry" />
        </mxCell>
        <mxCell id="RP6e3F4T2VRB4Au0Qs6i-2" value="Vender" style="swimlane;fontStyle=0;childLayout=stackLayout;horizontal=1;startSize=40;horizontalStack=0;resizeParent=1;resizeParentMax=0;resizeLast=0;collapsible=1;marginBottom=0;align=center;fontSize=17;fontFamily=Menlo;" vertex="1" parent="1">
          <mxGeometry x="590" y="320" width="360" height="200" as="geometry" />
        </mxCell>
        <mxCell id="RP6e3F4T2VRB4Au0Qs6i-3" value="venderId" style="text;strokeColor=none;fillColor=none;spacingLeft=4;spacingRight=4;overflow=hidden;rotatable=0;points=[[0,0.5],[1,0.5]];portConstraint=eastwest;fontSize=16;fontFamily=Menlo;" vertex="1" parent="RP6e3F4T2VRB4Au0Qs6i-2">
          <mxGeometry y="40" width="360" height="40" as="geometry" />
        </mxCell>
        <mxCell id="RP6e3F4T2VRB4Au0Qs6i-4" value="venderBasicInfoDo     商家基础信息" style="text;strokeColor=none;fillColor=none;spacingLeft=4;spacingRight=4;overflow=hidden;rotatable=0;points=[[0,0.5],[1,0.5]];portConstraint=eastwest;fontSize=16;fontFamily=Menlo;" vertex="1" parent="RP6e3F4T2VRB4Au0Qs6i-2">
          <mxGeometry y="80" width="360" height="40" as="geometry" />
        </mxCell>
        <mxCell id="RP6e3F4T2VRB4Au0Qs6i-5" value="dynamicSubjectMap     动态属性" style="text;strokeColor=none;fillColor=none;spacingLeft=4;spacingRight=4;overflow=hidden;rotatable=0;points=[[0,0.5],[1,0.5]];portConstraint=eastwest;fontSize=16;fontFamily=Menlo;" vertex="1" parent="RP6e3F4T2VRB4Au0Qs6i-2">
          <mxGeometry y="120" width="360" height="40" as="geometry" />
        </mxCell>
        <mxCell id="RP6e3F4T2VRB4Au0Qs6i-9" value="venderBusinessIdMap   业务身份ID" style="text;strokeColor=none;fillColor=none;spacingLeft=4;spacingRight=4;overflow=hidden;rotatable=0;points=[[0,0.5],[1,0.5]];portConstraint=eastwest;fontSize=16;fontFamily=Menlo;" vertex="1" parent="RP6e3F4T2VRB4Au0Qs6i-2">
          <mxGeometry y="160" width="360" height="40" as="geometry" />
        </mxCell>
        <mxCell id="RP6e3F4T2VRB4Au0Qs6i-15" value="全渠道O2O" style="rounded=1;whiteSpace=wrap;html=1;fontFamily=Menlo;fontSize=16;" vertex="1" parent="1">
          <mxGeometry x="1120" y="280" width="120" height="60" as="geometry" />
        </mxCell>
        <mxCell id="RP6e3F4T2VRB4Au0Qs6i-16" value="全渠道新通路" style="rounded=1;whiteSpace=wrap;html=1;fontFamily=Menlo;fontSize=16;" vertex="1" parent="1">
          <mxGeometry x="1120" y="380" width="120" height="60" as="geometry" />
        </mxCell>
        <mxCell id="RP6e3F4T2VRB4Au0Qs6i-18" value="开普勒" style="rounded=1;whiteSpace=wrap;html=1;fontFamily=Menlo;fontSize=16;" vertex="1" parent="1">
          <mxGeometry x="1120" y="480" width="120" height="60" as="geometry" />
        </mxCell>
        <mxCell id="RP6e3F4T2VRB4Au0Qs6i-19" value="全球购" style="rounded=1;whiteSpace=wrap;html=1;fontFamily=Menlo;fontSize=16;" vertex="1" parent="1">
          <mxGeometry x="1120" y="580" width="120" height="60" as="geometry" />
        </mxCell>
        <mxCell id="RP6e3F4T2VRB4Au0Qs6i-20" value="..." style="rounded=1;whiteSpace=wrap;html=1;fontFamily=Menlo;fontSize=16;" vertex="1" parent="1">
          <mxGeometry x="1120" y="680" width="120" height="60" as="geometry" />
        </mxCell>
        <mxCell id="RP6e3F4T2VRB4Au0Qs6i-21" value="SOP" style="rounded=1;whiteSpace=wrap;html=1;fontFamily=Menlo;fontSize=16;" vertex="1" parent="1">
          <mxGeometry x="1120" y="780" width="120" height="60" as="geometry" />
        </mxCell>
        <mxCell id="RP6e3F4T2VRB4Au0Qs6i-25" value="" style="shape=flexArrow;endArrow=classic;html=1;rounded=0;fontFamily=Menlo;fontSize=16;" edge="1" parent="1">
          <mxGeometry width="50" height="50" relative="1" as="geometry">
            <mxPoint x="1180" y="340" as="sourcePoint" />
            <mxPoint x="1180" y="380" as="targetPoint" />
          </mxGeometry>
        </mxCell>
        <mxCell id="RP6e3F4T2VRB4Au0Qs6i-26" value="" style="shape=flexArrow;endArrow=classic;html=1;rounded=0;fontFamily=Menlo;fontSize=16;" edge="1" parent="1">
          <mxGeometry width="50" height="50" relative="1" as="geometry">
            <mxPoint x="1179.5" y="440" as="sourcePoint" />
            <mxPoint x="1179.5" y="480" as="targetPoint" />
          </mxGeometry>
        </mxCell>
        <mxCell id="RP6e3F4T2VRB4Au0Qs6i-27" value="" style="shape=flexArrow;endArrow=classic;html=1;rounded=0;fontFamily=Menlo;fontSize=16;" edge="1" parent="1">
          <mxGeometry width="50" height="50" relative="1" as="geometry">
            <mxPoint x="1179.5" y="540" as="sourcePoint" />
            <mxPoint x="1179.5" y="580" as="targetPoint" />
          </mxGeometry>
        </mxCell>
        <mxCell id="RP6e3F4T2VRB4Au0Qs6i-28" value="" style="shape=flexArrow;endArrow=classic;html=1;rounded=0;fontFamily=Menlo;fontSize=16;" edge="1" parent="1">
          <mxGeometry width="50" height="50" relative="1" as="geometry">
            <mxPoint x="1179.5" y="640" as="sourcePoint" />
            <mxPoint x="1179.5" y="680" as="targetPoint" />
            <Array as="points">
              <mxPoint x="1179.5" y="660" />
            </Array>
          </mxGeometry>
        </mxCell>
        <mxCell id="RP6e3F4T2VRB4Au0Qs6i-29" value="" style="shape=flexArrow;endArrow=classic;html=1;rounded=0;fontFamily=Menlo;fontSize=16;" edge="1" parent="1">
          <mxGeometry width="50" height="50" relative="1" as="geometry">
            <mxPoint x="1179.5" y="740" as="sourcePoint" />
            <mxPoint x="1179.5" y="780" as="targetPoint" />
          </mxGeometry>
        </mxCell>
        <mxCell id="RP6e3F4T2VRB4Au0Qs6i-30" value="动态匹配链" style="text;html=1;strokeColor=none;fillColor=none;align=center;verticalAlign=middle;whiteSpace=wrap;rounded=0;fontFamily=Menlo;fontSize=20;fontStyle=1" vertex="1" parent="1">
          <mxGeometry x="1125" y="210" width="110" height="40" as="geometry" />
        </mxCell>
        <mxCell id="RP6e3F4T2VRB4Au0Qs6i-31" value="资费模板匹配引擎" style="text;html=1;strokeColor=none;fillColor=none;align=center;verticalAlign=middle;whiteSpace=wrap;rounded=0;fontFamily=Menlo;fontSize=24;fontStyle=1" vertex="1" parent="1">
          <mxGeometry x="840" y="60" width="220" height="30" as="geometry" />
        </mxCell>
        <mxCell id="RP6e3F4T2VRB4Au0Qs6i-33" value="" style="rounded=0;whiteSpace=wrap;html=1;fontFamily=Menlo;fontSize=16;dashed=1;dashPattern=1 1;" vertex="1" parent="1">
          <mxGeometry x="1380" y="190" width="330" height="330" as="geometry" />
        </mxCell>
        <mxCell id="RP6e3F4T2VRB4Au0Qs6i-35" value="表达式计算引擎" style="text;html=1;strokeColor=none;fillColor=none;align=center;verticalAlign=middle;whiteSpace=wrap;rounded=0;fontFamily=Menlo;fontSize=20;fontStyle=1" vertex="1" parent="1">
          <mxGeometry x="1450" y="220" width="160" height="30" as="geometry" />
        </mxCell>
        <mxCell id="RP6e3F4T2VRB4Au0Qs6i-36" value="表达式" style="rounded=1;whiteSpace=wrap;html=1;fontFamily=Menlo;fontSize=16;" vertex="1" parent="1">
          <mxGeometry x="1410" y="280" width="120" height="60" as="geometry" />
        </mxCell>
        <mxCell id="RP6e3F4T2VRB4Au0Qs6i-37" value="" style="endArrow=classic;html=1;rounded=0;fontFamily=Menlo;fontSize=16;exitX=1;exitY=0.5;exitDx=0;exitDy=0;entryX=0;entryY=0.5;entryDx=0;entryDy=0;" edge="1" parent="1" source="RP6e3F4T2VRB4Au0Qs6i-15" target="RP6e3F4T2VRB4Au0Qs6i-36">
          <mxGeometry width="50" height="50" relative="1" as="geometry">
            <mxPoint x="1300" y="350" as="sourcePoint" />
            <mxPoint x="1350" y="300" as="targetPoint" />
          </mxGeometry>
        </mxCell>
        <mxCell id="RP6e3F4T2VRB4Au0Qs6i-38" value="数据" style="rounded=1;whiteSpace=wrap;html=1;fontFamily=Menlo;fontSize=16;" vertex="1" parent="1">
          <mxGeometry x="1550" y="280" width="120" height="60" as="geometry" />
        </mxCell>
        <mxCell id="RP6e3F4T2VRB4Au0Qs6i-39" value="" style="endArrow=classic;html=1;rounded=0;fontFamily=Menlo;fontSize=16;entryX=1;entryY=0.5;entryDx=0;entryDy=0;exitX=0.998;exitY=0.108;exitDx=0;exitDy=0;edgeStyle=orthogonalEdgeStyle;exitPerimeter=0;" edge="1" parent="1" source="RP6e3F4T2VRB4Au0Qs6i-2" target="RP6e3F4T2VRB4Au0Qs6i-38">
          <mxGeometry width="50" height="50" relative="1" as="geometry">
            <mxPoint x="680" y="490" as="sourcePoint" />
            <mxPoint x="730" y="440" as="targetPoint" />
            <Array as="points">
              <mxPoint x="990" y="342" />
              <mxPoint x="990" y="150" />
              <mxPoint x="1800" y="150" />
              <mxPoint x="1800" y="310" />
            </Array>
          </mxGeometry>
        </mxCell>
        <mxCell id="RP6e3F4T2VRB4Au0Qs6i-40" value="执行计算" style="rounded=1;whiteSpace=wrap;html=1;fontFamily=Menlo;fontSize=16;" vertex="1" parent="1">
          <mxGeometry x="1480" y="410" width="120" height="60" as="geometry" />
        </mxCell>
        <mxCell id="RP6e3F4T2VRB4Au0Qs6i-41" value="" style="endArrow=classic;html=1;rounded=0;fontFamily=Menlo;fontSize=16;exitX=0.5;exitY=1;exitDx=0;exitDy=0;entryX=0.5;entryY=0;entryDx=0;entryDy=0;edgeStyle=orthogonalEdgeStyle;" edge="1" parent="1" source="RP6e3F4T2VRB4Au0Qs6i-36" target="RP6e3F4T2VRB4Au0Qs6i-40">
          <mxGeometry width="50" height="50" relative="1" as="geometry">
            <mxPoint x="1470" y="380" as="sourcePoint" />
            <mxPoint x="1520" y="330" as="targetPoint" />
          </mxGeometry>
        </mxCell>
        <mxCell id="RP6e3F4T2VRB4Au0Qs6i-42" value="" style="endArrow=classic;html=1;rounded=0;fontFamily=Menlo;fontSize=16;exitX=0.5;exitY=1;exitDx=0;exitDy=0;edgeStyle=orthogonalEdgeStyle;" edge="1" parent="1" source="RP6e3F4T2VRB4Au0Qs6i-38">
          <mxGeometry width="50" height="50" relative="1" as="geometry">
            <mxPoint x="1610" y="420" as="sourcePoint" />
            <mxPoint x="1540" y="410" as="targetPoint" />
          </mxGeometry>
        </mxCell>
        <mxCell id="RP6e3F4T2VRB4Au0Qs6i-43" value="" style="endArrow=classic;html=1;rounded=0;fontFamily=Menlo;fontSize=16;exitX=0;exitY=0.5;exitDx=0;exitDy=0;entryX=1;entryY=0.75;entryDx=0;entryDy=0;edgeStyle=orthogonalEdgeStyle;fillColor=#60a917;strokeColor=#2D7600;" edge="1" parent="1" source="RP6e3F4T2VRB4Au0Qs6i-40" target="RP6e3F4T2VRB4Au0Qs6i-15">
          <mxGeometry width="50" height="50" relative="1" as="geometry">
            <mxPoint x="1490" y="560" as="sourcePoint" />
            <mxPoint x="1540" y="510" as="targetPoint" />
          </mxGeometry>
        </mxCell>
        <mxCell id="RP6e3F4T2VRB4Au0Qs6i-46" value="&lt;font style=&quot;font-size: 20px;&quot;&gt;&lt;b&gt;数据加载器&lt;/b&gt;&lt;/font&gt;" style="text;html=1;strokeColor=none;fillColor=none;align=center;verticalAlign=middle;whiteSpace=wrap;rounded=0;dashed=1;dashPattern=1 1;fontFamily=Menlo;fontSize=16;" vertex="1" parent="1">
          <mxGeometry x="590" y="215" width="115" height="30" as="geometry" />
        </mxCell>
        <mxCell id="RP6e3F4T2VRB4Au0Qs6i-48" value="入参" style="rounded=1;whiteSpace=wrap;html=1;dashed=1;dashPattern=1 1;fontFamily=Menlo;fontSize=20;" vertex="1" parent="1">
          <mxGeometry x="270" y="325" width="120" height="60" as="geometry" />
        </mxCell>
        <mxCell id="RP6e3F4T2VRB4Au0Qs6i-49" value="" style="shape=flexArrow;endArrow=classic;html=1;rounded=0;fontFamily=Menlo;fontSize=20;exitX=1;exitY=0.5;exitDx=0;exitDy=0;entryX=-0.003;entryY=0.161;entryDx=0;entryDy=0;entryPerimeter=0;" edge="1" parent="1" source="RP6e3F4T2VRB4Au0Qs6i-48" target="RP6e3F4T2VRB4Au0Qs6i-2">
          <mxGeometry width="50" height="50" relative="1" as="geometry">
            <mxPoint x="430" y="400" as="sourcePoint" />
            <mxPoint x="480" y="350" as="targetPoint" />
          </mxGeometry>
        </mxCell>
        <mxCell id="RP6e3F4T2VRB4Au0Qs6i-50" value="转为充血模型" style="text;html=1;strokeColor=none;fillColor=none;align=center;verticalAlign=middle;whiteSpace=wrap;rounded=0;dashed=1;dashPattern=1 1;fontFamily=Menlo;fontSize=20;" vertex="1" parent="1">
          <mxGeometry x="420" y="310" width="130" height="30" as="geometry" />
        </mxCell>
        <mxCell id="RP6e3F4T2VRB4Au0Qs6i-52" value="查询商家基础信息" style="rounded=1;whiteSpace=wrap;html=1;dashed=1;dashPattern=1 1;fontFamily=Menlo;fontSize=20;" vertex="1" parent="1">
          <mxGeometry x="290" y="610" width="180" height="70" as="geometry" />
        </mxCell>
        <mxCell id="RP6e3F4T2VRB4Au0Qs6i-53" value="查询商家动态属性" style="rounded=1;whiteSpace=wrap;html=1;dashed=1;dashPattern=1 1;fontFamily=Menlo;fontSize=20;" vertex="1" parent="1">
          <mxGeometry x="540" y="610" width="180" height="70" as="geometry" />
        </mxCell>
        <mxCell id="RP6e3F4T2VRB4Au0Qs6i-54" value="查询商家业务身份ID" style="rounded=1;whiteSpace=wrap;html=1;dashed=1;dashPattern=1 1;fontFamily=Menlo;fontSize=20;" vertex="1" parent="1">
          <mxGeometry x="780" y="610" width="200" height="70" as="geometry" />
        </mxCell>
        <mxCell id="RP6e3F4T2VRB4Au0Qs6i-55" value="" style="endArrow=classic;html=1;rounded=0;fontFamily=Menlo;fontSize=20;entryX=0.5;entryY=0;entryDx=0;entryDy=0;exitX=0;exitY=0.5;exitDx=0;exitDy=0;edgeStyle=orthogonalEdgeStyle;" edge="1" parent="1" source="RP6e3F4T2VRB4Au0Qs6i-4" target="RP6e3F4T2VRB4Au0Qs6i-52">
          <mxGeometry width="50" height="50" relative="1" as="geometry">
            <mxPoint x="490" y="470" as="sourcePoint" />
            <mxPoint x="540" y="420" as="targetPoint" />
          </mxGeometry>
        </mxCell>
        <mxCell id="RP6e3F4T2VRB4Au0Qs6i-56" value="" style="endArrow=classic;html=1;rounded=0;fontFamily=Menlo;fontSize=20;entryX=0.5;entryY=0;entryDx=0;entryDy=0;exitX=0;exitY=0.25;exitDx=0;exitDy=0;exitPerimeter=0;edgeStyle=orthogonalEdgeStyle;" edge="1" parent="1" source="RP6e3F4T2VRB4Au0Qs6i-5" target="RP6e3F4T2VRB4Au0Qs6i-53">
          <mxGeometry width="50" height="50" relative="1" as="geometry">
            <mxPoint x="510" y="530" as="sourcePoint" />
            <mxPoint x="560" y="480" as="targetPoint" />
            <Array as="points">
              <mxPoint x="510" y="450" />
              <mxPoint x="510" y="580" />
              <mxPoint x="630" y="580" />
            </Array>
          </mxGeometry>
        </mxCell>
        <mxCell id="RP6e3F4T2VRB4Au0Qs6i-57" value="" style="endArrow=classic;html=1;rounded=0;fontFamily=Menlo;fontSize=20;exitX=0;exitY=0.5;exitDx=0;exitDy=0;entryX=0.5;entryY=0;entryDx=0;entryDy=0;edgeStyle=orthogonalEdgeStyle;" edge="1" parent="1" source="RP6e3F4T2VRB4Au0Qs6i-9" target="RP6e3F4T2VRB4Au0Qs6i-54">
          <mxGeometry width="50" height="50" relative="1" as="geometry">
            <mxPoint x="780" y="600" as="sourcePoint" />
            <mxPoint x="830" y="550" as="targetPoint" />
            <Array as="points">
              <mxPoint x="580" y="500" />
              <mxPoint x="580" y="550" />
              <mxPoint x="880" y="550" />
            </Array>
          </mxGeometry>
        </mxCell>
        <mxCell id="RP6e3F4T2VRB4Au0Qs6i-58" value="数据可在被使用时触发加载" style="shape=note;whiteSpace=wrap;html=1;backgroundOutline=1;darkOpacity=0.05;dashed=1;dashPattern=1 1;fontFamily=Menlo;fontSize=20;" vertex="1" parent="1">
          <mxGeometry x="270" y="440" width="80" height="160" as="geometry" />
        </mxCell>
      </root>
    </mxGraphModel>
  </diagram>
</mxfile>
